<svg width="324" height="45" viewBox="0 0 324 45" fill="none" xmlns="http://www.w3.org/2000/svg">
<path d="M63.34 33.36C61.612 33.36 60.016 32.976 58.552 32.208C57.088 31.44 55.912 30.336 55.024 28.896C54.16 27.456 53.728 25.764 53.728 23.82C53.728 21.876 54.16 20.184 55.024 18.744C55.912 17.304 57.088 16.2 58.552 15.432C60.016 14.664 61.612 14.28 63.34 14.28C64.612 14.28 65.704 14.448 66.616 14.784C67.552 15.096 68.416 15.504 69.208 16.008C69.688 16.32 69.928 16.74 69.928 17.268C69.928 17.628 69.784 17.964 69.496 18.276C69.232 18.564 68.92 18.708 68.56 18.708C68.296 18.708 68.032 18.636 67.768 18.492C66.976 18.084 66.292 17.796 65.716 17.628C65.164 17.436 64.468 17.34 63.628 17.34C61.564 17.34 59.944 17.94 58.768 19.14C57.592 20.316 57.004 21.876 57.004 23.82C57.004 25.764 57.592 27.336 58.768 28.536C59.944 29.712 61.564 30.3 63.628 30.3C64.468 30.3 65.164 30.216 65.716 30.048C66.292 29.856 66.976 29.556 67.768 29.148C68.032 29.004 68.296 28.932 68.56 28.932C68.92 28.932 69.232 29.088 69.496 29.4C69.784 29.688 69.928 30.012 69.928 30.372C69.928 30.9 69.688 31.32 69.208 31.632C68.416 32.136 67.552 32.556 66.616 32.892C65.704 33.204 64.612 33.36 63.34 33.36ZM81.9987 33.36C80.1507 33.36 78.5307 32.964 77.1387 32.172C75.7467 31.38 74.6667 30.264 73.8987 28.824C73.1547 27.36 72.7827 25.692 72.7827 23.82C72.7827 21.948 73.1547 20.292 73.8987 18.852C74.6667 17.388 75.7467 16.26 77.1387 15.468C78.5307 14.676 80.1507 14.28 81.9987 14.28C83.8227 14.28 85.4307 14.676 86.8227 15.468C88.2147 16.26 89.2947 17.388 90.0627 18.852C90.8307 20.292 91.2147 21.948 91.2147 23.82C91.2147 25.692 90.8307 27.36 90.0627 28.824C89.2947 30.264 88.2147 31.38 86.8227 32.172C85.4307 32.964 83.8227 33.36 81.9987 33.36ZM81.9987 30.372C82.9827 30.372 83.9187 30.144 84.8067 29.688C85.7187 29.232 86.4627 28.512 87.0387 27.528C87.6387 26.544 87.9387 25.296 87.9387 23.784C87.9387 22.296 87.6387 21.06 87.0387 20.076C86.4627 19.092 85.7187 18.384 84.8067 17.952C83.9187 17.496 82.9827 17.268 81.9987 17.268C80.9907 17.268 80.0307 17.496 79.1187 17.952C78.2307 18.384 77.4987 19.092 76.9227 20.076C76.3467 21.06 76.0587 22.296 76.0587 23.784C76.0587 25.296 76.3467 26.544 76.9227 27.528C77.4987 28.512 78.2307 29.232 79.1187 29.688C80.0307 30.144 80.9907 30.372 81.9987 30.372ZM97.421 33.18C96.965 33.18 96.581 33.024 96.269 32.712C95.957 32.4 95.801 32.016 95.801 31.56V16.116C95.801 15.66 95.957 15.276 96.269 14.964C96.581 14.628 96.965 14.46 97.421 14.46C97.877 14.46 98.261 14.628 98.573 14.964C98.909 15.276 99.077 15.66 99.077 16.116V17.592C99.989 16.584 100.973 15.78 102.029 15.18C103.085 14.58 104.333 14.28 105.773 14.28C107.093 14.28 108.233 14.592 109.193 15.216C110.177 15.84 110.921 16.692 111.425 17.772C111.953 18.852 112.217 20.04 112.217 21.336V31.56C112.217 32.016 112.049 32.4 111.713 32.712C111.401 33.024 111.017 33.18 110.561 33.18C110.105 33.18 109.721 33.024 109.409 32.712C109.097 32.4 108.941 32.016 108.941 31.56V21.696C108.941 18.768 107.621 17.304 104.981 17.304C103.781 17.304 102.701 17.616 101.741 18.24C100.805 18.864 99.917 19.704 99.077 20.76V31.56C99.077 32.016 98.909 32.4 98.573 32.712C98.261 33.024 97.877 33.18 97.421 33.18ZM123.653 33.36C120.149 33.36 118.397 31.776 118.397 28.608V17.448H115.841C115.649 17.448 115.481 17.388 115.337 17.268C115.217 17.124 115.157 16.956 115.157 16.764C115.157 16.524 115.265 16.32 115.481 16.152L120.377 11.364C120.593 11.148 120.797 11.04 120.989 11.04C121.181 11.04 121.337 11.112 121.457 11.256C121.601 11.4 121.673 11.568 121.673 11.76V14.64H125.741C126.149 14.64 126.485 14.772 126.749 15.036C127.013 15.3 127.145 15.636 127.145 16.044C127.145 16.428 127.013 16.764 126.749 17.052C126.485 17.316 126.149 17.448 125.741 17.448H121.673V28.32C121.673 29.256 121.889 29.856 122.321 30.12C122.777 30.36 123.341 30.48 124.013 30.48C124.493 30.48 124.973 30.408 125.453 30.264C125.549 30.24 125.645 30.216 125.741 30.192C125.861 30.168 126.005 30.156 126.173 30.156C126.509 30.156 126.809 30.288 127.073 30.552C127.337 30.792 127.469 31.092 127.469 31.452C127.469 32.004 127.193 32.424 126.641 32.712C125.705 33.144 124.709 33.36 123.653 33.36ZM139.025 33.36C136.097 33.36 133.805 32.532 132.149 30.876C130.517 29.196 129.701 26.844 129.701 23.82C129.701 22.116 130.013 20.544 130.637 19.104C131.261 17.664 132.221 16.5 133.517 15.612C134.813 14.724 136.409 14.28 138.305 14.28C140.081 14.28 141.617 14.7 142.913 15.54C144.209 16.356 145.193 17.46 145.865 18.852C146.537 20.22 146.873 21.72 146.873 23.352C146.873 23.808 146.717 24.192 146.405 24.504C146.117 24.816 145.721 24.972 145.217 24.972H133.013C133.205 26.652 133.829 27.96 134.885 28.896C135.941 29.832 137.417 30.3 139.313 30.3C140.321 30.3 141.197 30.204 141.941 30.012C142.709 29.82 143.453 29.544 144.173 29.184C144.365 29.088 144.581 29.04 144.821 29.04C145.205 29.04 145.541 29.172 145.829 29.436C146.117 29.7 146.261 30.036 146.261 30.444C146.261 30.972 145.949 31.416 145.325 31.776C144.389 32.304 143.465 32.7 142.553 32.964C141.641 33.228 140.465 33.36 139.025 33.36ZM143.633 22.308C143.561 21.132 143.249 20.148 142.697 19.356C142.169 18.564 141.509 17.988 140.717 17.628C139.925 17.244 139.121 17.052 138.305 17.052C137.489 17.052 136.685 17.244 135.893 17.628C135.101 17.988 134.441 18.564 133.913 19.356C133.385 20.148 133.085 21.132 133.013 22.308H143.633ZM157.147 33.36C154.747 33.36 152.563 32.82 150.595 31.74C150.187 31.452 149.983 31.056 149.983 30.552C149.983 30.168 150.115 29.832 150.379 29.544C150.643 29.256 150.979 29.112 151.387 29.112C151.603 29.112 151.819 29.16 152.035 29.256C152.803 29.592 153.571 29.856 154.339 30.048C155.107 30.24 155.971 30.336 156.931 30.336C159.595 30.336 160.927 29.484 160.927 27.78C160.927 27.228 160.615 26.808 159.991 26.52C159.391 26.232 158.395 25.908 157.003 25.548C155.587 25.212 154.411 24.864 153.475 24.504C152.563 24.144 151.771 23.604 151.099 22.884C150.451 22.14 150.127 21.168 150.127 19.968C150.127 18.288 150.727 16.92 151.927 15.864C153.151 14.808 154.891 14.28 157.147 14.28C158.995 14.28 160.735 14.58 162.367 15.18C162.703 15.276 162.955 15.456 163.123 15.72C163.315 15.984 163.411 16.26 163.411 16.548C163.411 16.932 163.267 17.268 162.979 17.556C162.715 17.844 162.379 17.988 161.971 17.988C161.851 17.988 161.695 17.964 161.503 17.916C160.111 17.484 158.743 17.268 157.399 17.268C156.103 17.268 155.083 17.508 154.339 17.988C153.619 18.444 153.259 19.044 153.259 19.788C153.259 20.508 153.595 21.036 154.267 21.372C154.939 21.708 155.983 22.032 157.399 22.344C158.815 22.704 159.967 23.064 160.855 23.424C161.743 23.76 162.499 24.3 163.123 25.044C163.771 25.788 164.095 26.784 164.095 28.032C164.095 29.568 163.483 30.84 162.259 31.848C161.059 32.856 159.355 33.36 157.147 33.36ZM174.7 33.36C171.196 33.36 169.444 31.776 169.444 28.608V17.448H166.888C166.696 17.448 166.528 17.388 166.384 17.268C166.264 17.124 166.204 16.956 166.204 16.764C166.204 16.524 166.312 16.32 166.528 16.152L171.424 11.364C171.64 11.148 171.844 11.04 172.036 11.04C172.228 11.04 172.384 11.112 172.504 11.256C172.648 11.4 172.72 11.568 172.72 11.76V14.64H176.788C177.196 14.64 177.532 14.772 177.796 15.036C178.06 15.3 178.192 15.636 178.192 16.044C178.192 16.428 178.06 16.764 177.796 17.052C177.532 17.316 177.196 17.448 176.788 17.448H172.72V28.32C172.72 29.256 172.936 29.856 173.368 30.12C173.824 30.36 174.388 30.48 175.06 30.48C175.54 30.48 176.02 30.408 176.5 30.264C176.596 30.24 176.692 30.216 176.788 30.192C176.908 30.168 177.052 30.156 177.22 30.156C177.556 30.156 177.856 30.288 178.12 30.552C178.384 30.792 178.516 31.092 178.516 31.452C178.516 32.004 178.24 32.424 177.688 32.712C176.752 33.144 175.756 33.36 174.7 33.36ZM183.19 24.36C182.782 24.36 182.434 24.228 182.146 23.964C181.882 23.676 181.75 23.328 181.75 22.92C181.75 22.512 181.882 22.164 182.146 21.876C182.434 21.588 182.782 21.444 183.19 21.444H189.994C190.402 21.444 190.75 21.588 191.038 21.876C191.326 22.164 191.47 22.512 191.47 22.92C191.47 23.328 191.326 23.676 191.038 23.964C190.75 24.228 190.402 24.36 189.994 24.36H183.19Z" fill="#4B4B4B"/>
<path d="M203.141 33.36C199.637 33.36 197.885 31.776 197.885 28.608V17.448H195.329C195.137 17.448 194.969 17.388 194.825 17.268C194.705 17.124 194.645 16.956 194.645 16.764C194.645 16.524 194.753 16.32 194.969 16.152L199.865 11.364C200.081 11.148 200.285 11.04 200.477 11.04C200.669 11.04 200.825 11.112 200.945 11.256C201.089 11.4 201.161 11.568 201.161 11.76V14.64H205.229C205.637 14.64 205.973 14.772 206.237 15.036C206.501 15.3 206.633 15.636 206.633 16.044C206.633 16.428 206.501 16.764 206.237 17.052C205.973 17.316 205.637 17.448 205.229 17.448H201.161V28.32C201.161 29.256 201.377 29.856 201.809 30.12C202.265 30.36 202.829 30.48 203.501 30.48C203.981 30.48 204.461 30.408 204.941 30.264C205.037 30.24 205.133 30.216 205.229 30.192C205.349 30.168 205.493 30.156 205.661 30.156C205.997 30.156 206.297 30.288 206.561 30.552C206.825 30.792 206.957 31.092 206.957 31.452C206.957 32.004 206.681 32.424 206.129 32.712C205.193 33.144 204.197 33.36 203.141 33.36ZM212.171 33.18C211.715 33.18 211.331 33.024 211.019 32.712C210.707 32.4 210.551 32.016 210.551 31.56V16.116C210.551 15.66 210.707 15.276 211.019 14.964C211.331 14.628 211.715 14.46 212.171 14.46C212.627 14.46 213.011 14.628 213.323 14.964C213.659 15.276 213.827 15.66 213.827 16.116V17.664C215.507 15.408 217.391 14.28 219.479 14.28H219.659C220.115 14.28 220.487 14.436 220.775 14.748C221.087 15.06 221.243 15.444 221.243 15.9C221.243 16.356 221.087 16.728 220.775 17.016C220.463 17.304 220.067 17.448 219.587 17.448H219.407C218.255 17.448 217.199 17.736 216.239 18.312C215.279 18.864 214.475 19.632 213.827 20.616V31.56C213.827 32.016 213.659 32.4 213.323 32.712C213.011 33.024 212.627 33.18 212.171 33.18ZM229.012 33.36C227.956 33.36 226.972 33.144 226.06 32.712C225.172 32.28 224.464 31.656 223.936 30.84C223.408 30 223.144 29.04 223.144 27.96C223.144 26.184 223.84 24.768 225.232 23.712C226.648 22.656 228.712 22.128 231.424 22.128H235.78V21.84C235.78 20.256 235.384 19.116 234.592 18.42C233.824 17.724 232.612 17.376 230.956 17.376C230.044 17.376 229.228 17.448 228.508 17.592C227.812 17.736 227.032 17.952 226.168 18.24C225.976 18.288 225.82 18.312 225.7 18.312C225.34 18.312 225.028 18.18 224.764 17.916C224.5 17.652 224.368 17.328 224.368 16.944C224.368 16.296 224.68 15.84 225.304 15.576C227.344 14.712 229.42 14.28 231.532 14.28C233.188 14.28 234.58 14.616 235.708 15.288C236.86 15.96 237.7 16.836 238.228 17.916C238.78 18.972 239.056 20.124 239.056 21.372V31.56C239.056 32.016 238.888 32.4 238.552 32.712C238.24 33.024 237.856 33.18 237.4 33.18C236.944 33.18 236.56 33.024 236.248 32.712C235.936 32.4 235.78 32.016 235.78 31.56V30.624C234.004 32.448 231.748 33.36 229.012 33.36ZM230.236 30.48C231.292 30.48 232.312 30.228 233.296 29.724C234.28 29.196 235.108 28.548 235.78 27.78V24.756H231.856C228.232 24.756 226.42 25.704 226.42 27.6C226.42 28.464 226.708 29.16 227.284 29.688C227.884 30.216 228.868 30.48 230.236 30.48ZM253.043 33.36C251.315 33.36 249.719 32.976 248.255 32.208C246.791 31.44 245.615 30.336 244.727 28.896C243.863 27.456 243.431 25.764 243.431 23.82C243.431 21.876 243.863 20.184 244.727 18.744C245.615 17.304 246.791 16.2 248.255 15.432C249.719 14.664 251.315 14.28 253.043 14.28C254.315 14.28 255.407 14.448 256.319 14.784C257.255 15.096 258.119 15.504 258.911 16.008C259.391 16.32 259.631 16.74 259.631 17.268C259.631 17.628 259.487 17.964 259.199 18.276C258.935 18.564 258.623 18.708 258.263 18.708C257.999 18.708 257.735 18.636 257.471 18.492C256.679 18.084 255.995 17.796 255.419 17.628C254.867 17.436 254.171 17.34 253.331 17.34C251.267 17.34 249.647 17.94 248.471 19.14C247.295 20.316 246.707 21.876 246.707 23.82C246.707 25.764 247.295 27.336 248.471 28.536C249.647 29.712 251.267 30.3 253.331 30.3C254.171 30.3 254.867 30.216 255.419 30.048C255.995 29.856 256.679 29.556 257.471 29.148C257.735 29.004 257.999 28.932 258.263 28.932C258.623 28.932 258.935 29.088 259.199 29.4C259.487 29.688 259.631 30.012 259.631 30.372C259.631 30.9 259.391 31.32 258.911 31.632C258.119 32.136 257.255 32.556 256.319 32.892C255.407 33.204 254.315 33.36 253.043 33.36ZM265.362 33.18C264.906 33.18 264.522 33.024 264.21 32.712C263.898 32.4 263.742 32.016 263.742 31.56V8.196C263.742 7.74 263.898 7.356 264.21 7.044C264.522 6.708 264.906 6.54 265.362 6.54C265.818 6.54 266.202 6.708 266.514 7.044C266.85 7.356 267.018 7.74 267.018 8.196V22.92L275.586 15C275.946 14.688 276.306 14.532 276.666 14.532C277.218 14.532 277.614 14.688 277.854 15C278.118 15.312 278.25 15.684 278.25 16.116C278.25 16.524 278.046 16.932 277.638 17.34L272.454 21.984L278.97 30.624C279.21 30.936 279.33 31.26 279.33 31.596C279.33 32.076 279.174 32.46 278.862 32.748C278.55 33.036 278.154 33.18 277.674 33.18C277.434 33.18 277.194 33.12 276.954 33C276.714 32.88 276.51 32.712 276.342 32.496L270.15 24.072L267.018 26.916V31.56C267.018 32.016 266.85 32.4 266.514 32.712C266.202 33.024 265.818 33.18 265.362 33.18ZM291.251 33.36C288.323 33.36 286.031 32.532 284.375 30.876C282.743 29.196 281.927 26.844 281.927 23.82C281.927 22.116 282.239 20.544 282.863 19.104C283.487 17.664 284.447 16.5 285.743 15.612C287.039 14.724 288.635 14.28 290.531 14.28C292.307 14.28 293.843 14.7 295.139 15.54C296.435 16.356 297.419 17.46 298.091 18.852C298.763 20.22 299.099 21.72 299.099 23.352C299.099 23.808 298.943 24.192 298.631 24.504C298.343 24.816 297.947 24.972 297.443 24.972H285.239C285.431 26.652 286.055 27.96 287.111 28.896C288.167 29.832 289.643 30.3 291.539 30.3C292.547 30.3 293.423 30.204 294.167 30.012C294.935 29.82 295.679 29.544 296.399 29.184C296.591 29.088 296.807 29.04 297.047 29.04C297.431 29.04 297.767 29.172 298.055 29.436C298.343 29.7 298.487 30.036 298.487 30.444C298.487 30.972 298.175 31.416 297.551 31.776C296.615 32.304 295.691 32.7 294.779 32.964C293.867 33.228 292.691 33.36 291.251 33.36ZM295.859 22.308C295.787 21.132 295.475 20.148 294.923 19.356C294.395 18.564 293.735 17.988 292.943 17.628C292.151 17.244 291.347 17.052 290.531 17.052C289.715 17.052 288.911 17.244 288.119 17.628C287.327 17.988 286.667 18.564 286.139 19.356C285.611 20.148 285.311 21.132 285.239 22.308H295.859ZM305.054 33.18C304.598 33.18 304.214 33.024 303.902 32.712C303.59 32.4 303.434 32.016 303.434 31.56V16.116C303.434 15.66 303.59 15.276 303.902 14.964C304.214 14.628 304.598 14.46 305.054 14.46C305.51 14.46 305.894 14.628 306.206 14.964C306.542 15.276 306.71 15.66 306.71 16.116V17.664C308.39 15.408 310.274 14.28 312.362 14.28H312.542C312.998 14.28 313.37 14.436 313.658 14.748C313.97 15.06 314.126 15.444 314.126 15.9C314.126 16.356 313.97 16.728 313.658 17.016C313.346 17.304 312.95 17.448 312.47 17.448H312.29C311.138 17.448 310.082 17.736 309.122 18.312C308.162 18.864 307.358 19.632 306.71 20.616V31.56C306.71 32.016 306.542 32.4 306.206 32.712C305.894 33.024 305.51 33.18 305.054 33.18Z" fill="#4B4B4B"/>
<path d="M0 16C0 10.3995 0 7.59921 1.08993 5.46009C2.04867 3.57847 3.57847 2.04867 5.46009 1.08993C7.59921 0 10.3995 0 16 0H29C34.6005 0 37.4008 0 39.5399 1.08993C41.4215 2.04867 42.9513 3.57847 43.9101 5.46009C45 7.59921 45 10.3995 45 16V29C45 34.6005 45 37.4008 43.9101 39.5399C42.9513 41.4215 41.4215 42.9513 39.5399 43.9101C37.4008 45 34.6005 45 29 45H16C10.3995 45 7.59921 45 5.46009 43.9101C3.57847 42.9513 2.04867 41.4215 1.08993 39.5399C0 37.4008 0 34.6005 0 29V16Z" fill="#0057FF"/>
<path d="M24.5556 37H12.1111C10.3929 37 9 35.6071 9 33.8889V12.1111C9 10.3929 10.3929 9 12.1111 9H33.8889C35.6071 9 37 10.3929 37 12.1111V24.5556C36.9993 24.5735 36.9962 24.5913 36.9907 24.6084C36.9862 24.6226 36.9831 24.6372 36.9813 24.652C36.9725 24.7892 36.9459 24.9246 36.902 25.0549L36.888 25.0969C36.8775 25.132 36.8645 25.1663 36.8491 25.1996C36.7738 25.369 36.6684 25.5234 36.538 25.6553L25.6491 36.5442C25.359 36.8344 24.9659 36.9983 24.5556 37ZM12.1111 12.1111V33.8889H23V24.5556C23 23.6964 23.6964 23 24.5556 23H33.8889V12.1111H12.1111ZM26.1111 26.1111V31.6909L31.6893 26.1111H26.1111Z" fill="white"/>
</svg>
