<?xml version="1.0" standalone="no"?>
<!DOCTYPE svg PUBLIC "-//W3C//DTD SVG 20010904//EN"
 "http://www.w3.org/TR/2001/REC-SVG-20010904/DTD/svg10.dtd">
<svg version="1.0" xmlns="http://www.w3.org/2000/svg"
 width="700.000000pt" height="700.000000pt" viewBox="0 0 700.000000 700.000000"
 preserveAspectRatio="xMidYMid meet">
<metadata>
Created by potrace 1.11, written by Peter Selinger 2001-2013
</metadata>
<g transform="translate(0.000000,700.000000) scale(0.100000,-0.100000)"
fill="#000000" stroke="none">
<path d="M1625 6994 c-247 -16 -421 -40 -550 -74 -344 -92 -676 -360 -874
-706 -117 -203 -167 -410 -191 -789 -13 -215 -13 -3635 0 -3850 17 -267 54
-478 110 -624 100 -258 323 -528 574 -693 246 -162 450 -219 881 -248 202 -13
3627 -13 3840 0 437 27 649 86 891 249 182 121 329 270 446 451 140 215 194
389 230 740 19 181 19 3917 0 4100 -27 267 -73 453 -148 601 -63 125 -174 278
-278 383 -232 234 -469 362 -766 416 -239 44 -218 43 -2215 45 -1045 1 -1922
0 -1950 -1z m3799 -1422 c164 -62 283 -196 316 -356 7 -34 9 -388 8 -1076 l-3
-1025 -22 -40 c-12 -23 -395 -413 -905 -922 -763 -761 -888 -883 -923 -892
-27 -7 -363 -11 -1055 -11 -868 0 -1024 2 -1073 15 -162 42 -281 152 -339 315
l-23 65 -3 1725 c-2 1150 1 1752 8 1805 27 211 199 388 402 414 35 5 848 8
1808 7 l1745 -1 59 -23z"/>
<path d="M1882 3423 l3 -1698 847 -3 848 -2 2 762 c3 760 3 763 25 803 25 47
64 85 113 111 33 18 76 19 798 22 l762 2 0 850 0 850 -1700 0 -1700 0 2 -1697z"/>
<path d="M4060 2503 l0 -438 435 435 c239 239 435 436 435 437 0 2 -196 3
-435 3 l-435 0 0 -437z"/>
</g>
</svg>
