<?xml version="1.0" standalone="no"?>
<!DOCTYPE svg PUBLIC "-//W3C//DTD SVG 20010904//EN"
 "http://www.w3.org/TR/2001/REC-SVG-20010904/DTD/svg10.dtd">
<svg version="1.0" xmlns="http://www.w3.org/2000/svg"
 width="700.000000pt" height="700.000000pt" viewBox="0 0 700.000000 700.000000"
 preserveAspectRatio="xMidYMid meet">
<metadata>
Created by potrace 1.11, written by Peter Selinger 2001-2013
</metadata>
<g transform="translate(0.000000,700.000000) scale(0.100000,-0.100000)"
fill="#000000" stroke="none">
<path d="M1395 6120 c-196 -22 -372 -145 -458 -322 -66 -138 -62 24 -62 -2303
l0 -2120 23 -75 c61 -193 200 -336 385 -395 l78 -25 2139 0 2139 0 78 25 c185
59 324 202 385 395 l23 75 0 2120 c0 1749 -2 2130 -14 2175 -50 206 -210 372
-421 438 -51 15 -217 17 -2140 18 -1147 1 -2116 -2 -2155 -6z m1632 -612 c68
-36 120 -90 152 -158 l26 -55 0 -1650 0 -1650 -28 -56 c-32 -66 -99 -132 -165
-162 -47 -22 -52 -22 -682 -22 l-635 0 -53 28 c-67 35 -122 90 -153 153 l-24
49 -3 1645 c-3 1835 -8 1693 68 1789 21 27 55 59 75 71 79 49 79 49 745 47
l625 -2 52 -27z m2338 -3 c72 -37 138 -114 160 -187 13 -45 15 -162 15 -874 0
-806 0 -824 -21 -878 -28 -77 -94 -146 -171 -182 l-63 -29 -620 0 -620 0 -55
26 c-77 36 -121 77 -161 151 l-34 63 0 850 0 850 26 55 c41 87 117 152 209
181 14 4 307 7 651 6 l625 -2 59 -30z"/>
</g>
</svg>
